<mxfile host="app.diagrams.net" modified="2024-07-09T11:15:36.487Z" agent="Mozilla/5.0 (Macintosh; Intel Mac OS X 10_15_7) AppleWebKit/537.36 (KHTML, like Gecko) Chrome/126.0.0.0 Safari/537.36" version="24.6.4" etag="VcVoNz6QWffAHqarlqZn" type="github">
  <diagram name="Page-1" id="_5IWBhikT7cRMKYD_XUl">
    <mxGraphModel>
      <root>
        <mxCell id="0" />
        <mxCell id="1" parent="0" />
      </root>
    </mxGraphModel>
  </diagram>
</mxfile>
